PathFileType	4	(X/Y/Z)	3_coords_data.trc
DataRate	CameraRate	NumFrames	NumMarkers	Units	OrigDataRate	OrigDataStartFrame	OrigNumFrames
30.0	30.0	5	21	m	30.0	69	78
Frame#	Time	THUMB_TIP	THUMB_IP	THUMB_MCP	THUMB_CMC	INDEX_TIP	INDEX_DIP	INDEX_PIP	INDEX_MCP	MIDDLE_TIP	MIDDLE_DIP	MIDDLE_PIP	MIDDLE_MCP	RING_TIP	RING_DIP	RING_PIP	RING_MCP	PINKY_TIP	PINKY_DIP	PINKY_PIP	PINKY_MCP	WRIST
X1	Y1	Z1	X2	Y2	Z2	X3	Y3	Z3	X4	Y4	Z4	X5	Y5	Z5	X6	Y6	Z6	X7	Y7	Z7	X8	Y8	Z8	X9	Y9	Z9	X10	Y10	Z10	X11	Y11	Z11	X12	Y12	Z12	X13	Y13	Z13	X14	Y14	Z14	X15	Y15	Z15	X16	Y16	Z16	X17	Y17	Z17	X18	Y18	Z18	X19	Y19	Z19	X20	Y20	Z20	X21	Y21	Z21
67	2.266666666666657	0.5225347836951666	-0.0032746788495628953	-0.15345013869634178	0.5039487406913645	-0.00953200350311656	-0.14147496046631736	0.48616909716530554	-0.022480014608518895	-0.11945103519172906	0.47767245565129446	-0.026724056325002077	-0.07586565699110848	0.5723608422397425	0.03689991051726316	-0.15124696381581454	0.5546477849612638	0.035833669465361595	-0.14762608935395172	0.5309845254134881	0.03180887430529078	-0.14015206737819608	0.4987458753604983	0.013977768501824195	-0.11878954873955117	0.5834880755002916	0.04831194293291785	-0.1329844538636772	0.5657437932990131	0.04915392171165445	-0.12945861766533417	0.5376936490661386	0.04665038682954814	-0.12195320151371292	0.5029163721855383	0.026578445498057213	-0.10236223152865964	0.5763783822062443	0.04971037134158185	-0.10652077666322035	0.5596005186506373	0.05611695826735097	-0.10495267638836403	0.535107229457191	0.05799198476550538	-0.10086085049795446	0.504983219582839	0.036007098498500034	-0.08524260351191959	0.5705024779965421	0.05100008097726094	-0.08377819781077522	0.5549247443020802	0.05663763060957083	-0.07947096585885283	0.5345537300453825	0.055700816659037033	-0.07447535010346196	0.5077408337943852	0.03395536142869626	-0.06403086723170126	0.4622830810018609	-0.023011742144276925	-0.051989820119430985
68	2.29999999999999	0.5218894483610989	-0.0031411113342675323	-0.15393788100680367	0.5035096532331846	-0.00940236888494439	-0.14165049784601647	0.48597434445752563	-0.022411755809226608	-0.11946742326207727	0.47768635945386473	-0.026755796171975654	-0.07585173092656694	0.5723620856303568	0.03678838001666607	-0.15127416646979197	0.5546392304081804	0.03580713945290381	-0.14767728313420797	0.530973761691423	0.03177464706693922	-0.14021441313846839	0.4987883683875395	0.013895288636606051	-0.11881195781217457	0.5834036655188057	0.048317415681935816	-0.13316751202293386	0.5656646348763235	0.04920193459268041	-0.1296257020108622	0.5376453514524822	0.04660788592904941	-0.12203622126807268	0.5028693577241514	0.02656263609458398	-0.10241566724223117	0.5763334524818433	0.049678863831642106	-0.10664015310132902	0.5595678723786105	0.05611528973222346	-0.10506289426765247	0.5350810599566773	0.058035537640609425	-0.10095331468046842	0.50508622840663	0.03590212611838006	-0.0852962712599521	0.5704184041838647	0.051048570043311536	-0.08394379671493402	0.5548468678048382	0.05667929774999747	-0.07960534534493857	0.5344733973848564	0.05579329407377287	-0.07461047602414062	0.507805986031129	0.03387853065231239	-0.06414740922360307	0.4622830810018609	-0.023011742144276925	-0.051989820119430985
70	2.333333333333334	0.5212464680617038	-0.0030778292547054553	-0.1544645124134218	0.5030836978583844	-0.009346674384738574	-0.14186231580818387	0.4858184642615554	-0.022424388499983183	-0.1195082311173078	0.47766342963631425	-0.02675691908072242	-0.07586634081649624	0.5722501654197716	0.03673809148863161	-0.1513765112556329	0.5545264742841237	0.03580841037139426	-0.1477700634813804	0.5308582237136483	0.03178077770628829	-0.1403133937791501	0.498722638302851	0.013872264503605014	-0.1188605291878031	0.5832904182642134	0.048316901637393106	-0.1333450482407159	0.565556218245779	0.04923480244369094	-0.1297875761303603	0.5375609860527718	0.04659272539184156	-0.12212624770040059	0.5027913096105866	0.026580435969450145	-0.10246090272045694	0.5762469770890053	0.04964611449702305	-0.10675960872213297	0.5594988257117395	0.056125137230125244	-0.10517162576626105	0.5350186880213246	0.058069259331869016	-0.10103360366484126	0.5050814514221244	0.03586884847137228	-0.08536119298783784	0.5703341189201347	0.05113084957357661	-0.08410889865059457	0.5547742642941274	0.056778416643048724	-0.07975046886300707	0.5344071746113098	0.0558838330742103	-0.07473116641242394	0.5079336084452872	0.03376266155903951	-0.06421035293391253	0.4622830810018608	-0.023011742144276925	-0.051989820119430985
71	2.3666666666666676	0.5206422795878196	-0.003039647280412061	-0.15495568338286542	0.5026867655391367	-0.009303317904301167	-0.14205739103221	0.48567216856944395	-0.022438887573004718	-0.11954560968471195	0.47764213313496595	-0.02676057504348084	-0.07587947236609205	0.5721468447217158	0.036671303440383274	-0.15145714513721115	0.5544206729923731	0.035799870533749334	-0.1478483447117116	0.5307463814752618	0.03179177954652013	-0.14040032747214182	0.49865175775436743	0.013859132305363508	-0.11890634261268784	0.5831838518082737	0.04830504560382065	-0.13349317869786914	0.565453816134208	0.04925698989480087	-0.12992391587997176	0.537476670765912	0.04658466971319419	-0.12220720726241852	0.5027115226690748	0.02660539094923231	-0.10250033488558308	0.576181754795735	0.04959199108619616	-0.10685312304098638	0.5594500957342179	0.05611125830380437	-0.10525601941423812	0.5349759246813716	0.058086020018857765	-0.10109726401811525	0.5050751496064936	0.03584055357115712	-0.08541913573551119	0.5702523560111351	0.05120535768022272	-0.08424714852077286	0.5547043739852485	0.05687596295462505	-0.07987628010081049	0.5343434124362919	0.05596882741481779	-0.07483441844916527	0.5080519396647126	0.03365634714970389	-0.06426109660027524	0.4622830810018608	-0.023011742144276925	-0.051989820119430985
72	2.400000000000001	0.5201005120180322	-0.0030262025292954187	-0.15539173152308816	0.5023290278816968	-0.009269833007594208	-0.14223151001878087	0.48553175202765775	-0.022447672586380807	-0.11958165200776705	0.47761925950532425	-0.02676436274835492	-0.07589356841361594	0.57205024564131	0.03659700218449036	-0.15150913897634427	0.554319983937763	0.0357872137175278	-0.14790607603455302	0.5306365684239636	0.03181452321633271	-0.1404681063665294	0.4985693313204689	0.013863252489955236	-0.11894880624183757	0.5830824561116293	0.04828797202499657	-0.13360357550690727	0.565355852846633	0.04927282104278485	-0.13002620089728334	0.5373889884866279	0.046590692715059556	-0.12227570184866143	0.5026274615567988	0.02663948185157472	-0.10253403647849713	0.5761394367064067	0.04952002737966554	-0.10691395262871928	0.5594213836575364	0.056071513064188006	-0.10530624072024197	0.534952257190052	0.0580883876770486	-0.10113802219019163	0.505063426533096	0.03582183891569113	-0.08546704767620883	0.570172443873084	0.051278989978474465	-0.08435112527185529	0.554634513318584	0.05697375891806533	-0.07997593146949533	0.5342791314701654	0.05604985869701684	-0.07491462164034923	0.5081468033453626	0.0335715703932129	-0.06429805756769802	0.4622830810018608	-0.023011742144276925	-0.051989820119430985
